<?xml version="1.0" encoding="utf-8"?>
<!-- Generator: Adobe Illustrator 24.2.1, SVG Export Plug-In . SVG Version: 6.00 Build 0)  -->
<svg version="1.1" id="Calque_1" xmlns="http://www.w3.org/2000/svg" xmlns:xlink="http://www.w3.org/1999/xlink" x="0px" y="0px"
	 viewBox="0 0 405.7 464.7" style="enable-background:new 0 0 405.7 464.7;" xml:space="preserve">
<style type="text/css">
	.st0{fill-rule:evenodd;clip-rule:evenodd;fill:#59328A;}
	.st1{fill-rule:evenodd;clip-rule:evenodd;fill:#07935B;}
	.st2{fill-rule:evenodd;clip-rule:evenodd;fill:#223B81;}
	.st3{fill-rule:evenodd;clip-rule:evenodd;fill:#004C92;}
	.st4{fill-rule:evenodd;clip-rule:evenodd;fill:#01639B;}
	.st5{fill-rule:evenodd;clip-rule:evenodd;fill:#05739E;}
	.st6{fill-rule:evenodd;clip-rule:evenodd;fill:#018683;}
	.st7{fill-rule:evenodd;clip-rule:evenodd;fill:#463D91;}
	.st8{fill-rule:evenodd;clip-rule:evenodd;fill:#503E55;}
	.st9{fill-rule:evenodd;clip-rule:evenodd;fill:#F18423;}
	.st10{fill-rule:evenodd;clip-rule:evenodd;fill:#A6267F;}
	.st11{fill-rule:evenodd;clip-rule:evenodd;fill:#FAB719;}
	.st12{fill-rule:evenodd;clip-rule:evenodd;fill:#E62E3A;}
	.st13{fill-rule:evenodd;clip-rule:evenodd;fill:#ED6F28;}
	.st14{fill-rule:evenodd;clip-rule:evenodd;fill:#F39324;}
	.st15{fill-rule:evenodd;clip-rule:evenodd;fill:#F7A523;}
	.st16{fill-rule:evenodd;clip-rule:evenodd;fill:#D32863;}
	.st17{display:none;}
	.st18{display:inline;fill-rule:evenodd;clip-rule:evenodd;fill:#FFFFFF;}
	.st19{display:inline;fill-rule:evenodd;clip-rule:evenodd;}
</style>
<g id="couleur">
	<path class="st0" d="M250.8,352.7c-5.3-9.2-10.9-19.2-17.4-30.1l-0.9-0.2l-1.4-0.4c-2.3-0.7-4.5-1.7-6.6-2.9
		c-1.4-0.8-2.8-1.8-4.1-2.8c-0.5,3.5-0.6,7-0.5,10.5c0.2,4.5,0.8,8.9,1.7,13.3l3.5,17.9c2.4,12.3,4.7,23.6,7.1,34.3
		c2.3,10.3,4.7,20.3,7.2,30.5c16.1-2.8,31.8-7.4,46.8-13.8C273.2,391.2,261.4,372.3,250.8,352.7z"/>
	<path class="st1" d="M342.9,0c4.6,29.7,2.9,60.1-5.2,89.1c-8.1,28.1-23,53.8-43.2,74.9l0.1,0.3c1.5,3.4,2.9,6.8,4.1,10.3
		c1.1,3.2,2,6.5,2.7,9.8c9.4-5.9,18.3-12.7,26.5-20.2c8.5-7.8,16.2-16.5,23-25.9c7.3-10.2,13.6-21.1,18.7-32.5
		c5.3-11.9,9.4-24.3,12.4-37.1c1.1-4.7,1.6-9.4,1.4-14.2c-0.1-4.6-0.9-9.2-2.4-13.7c-1.4-4.4-3.5-8.6-6.1-12.5
		c-2.7-4-5.9-7.6-9.5-10.7c-2.2-1.9-4.3-3.7-6.5-5.5s-4.4-3.6-6.6-5.2c-1.8-1.4-3.8-2.8-5.9-4.3l0-0.1C345.2,1.6,344.1,0.8,342.9,0z
		"/>
	<path class="st2" d="M263.8,289c-2.6,2-5.3,3.9-8.1,5.6c-2.5,1.6-5.1,3-7.7,4.4l1.5,1.4c2.4,2.2,4.9,4.4,7.5,6.5
		c1.6,1.3,3.1,2.5,4.8,3.8c4.9,3.8,11,5.7,17.2,5.4c3.1-0.1,6.1-0.9,8.9-2.1c2.8-1.2,5.5-3,7.7-5.1c0.8-0.7,1.5-1.5,2.3-2.2
		c0.8-0.7,1.5-1.5,2.3-2.3l0,0c-2.5-0.7-5-1.5-7.5-2.4c-3.1-1.1-6.3-2.3-9.4-3.6c-3.4-1.4-6.9-2.9-10.3-4.6
		C270,292.3,266.9,290.7,263.8,289z"/>
	<path class="st3" d="M347.4,274.1c-4.6,0.5-9.3,0.8-14.1,1c-5.4,0.2-10.9,0.1-16.4-0.2c-5.7-0.3-11.5-1-17.4-1.9
		c-5.5-0.8-11-1.9-16.5-3.3c-1.3,1.7-2.7,3.4-4.1,5.1c-1.6,1.9-3.3,3.7-5,5.4c-0.7,0.7-1.5,1.5-2.4,2.3l-1.1,1
		c2.4,1.3,4.8,2.5,7.2,3.6c3,1.4,5.9,2.7,8.9,3.9c3.7,1.5,7.5,2.9,11.2,4.2s7.6,2.4,11.4,3.4c3.2,0.8,6.5,1.1,9.8,0.9
		c6.5-0.5,12.7-3.1,17.5-7.6c2.4-2.2,4.5-4.9,6-7.8c0.7-1.3,1.4-2.6,2.1-4c0.7-1.4,1.3-2.7,2-4L347.4,274.1z"/>
	<path class="st4" d="M383.4,222.5c-6,3.4-12.1,6.4-18.5,9.1c-7,3-14.2,5.5-21.5,7.6c-7.7,2.2-15.5,3.8-23.5,5
		c-7.8,1.1-15.6,1.8-23.5,2c-1.2,3-2.6,6-4.1,8.9c-1.4,2.6-2.9,5.2-4.5,7.7c4.7,1.1,9.3,1.9,13.9,2.6c5.2,0.8,10.5,1.3,15.6,1.6
		c6,0.4,12,0.4,17.9,0.1c6-0.3,11.9-0.8,17.8-1.7c3.5-0.5,7-1.6,10.2-3.2c3.2-1.5,6.1-3.6,8.6-6c2.5-2.5,4.6-5.3,6.2-8.5
		c1.6-3.2,2.8-6.6,3.4-10.2c0.3-1.9,0.6-3.8,0.8-5.5s0.5-3.7,0.7-5.6C383.1,225.1,383.3,223.9,383.4,222.5z"/>
	<path class="st5" d="M399.3,154.1c-5.6,7.3-11.8,14.3-18.4,20.7c-14.4,14.1-31.1,25.7-49.3,34.3c-9.1,4.3-18.6,7.9-28.3,10.7
		c-0.4,3.3-1,6.5-1.6,9.7c-0.6,2.9-1.4,5.7-2.3,8.6c6.9-0.2,13.7-0.9,20.5-1.9c15.3-2.3,30.2-6.6,44.3-12.9
		c7.5-3.3,14.7-7.1,21.7-11.4c3.2-2,6.2-4.5,8.8-7.3c2.5-2.8,4.5-5.9,6.1-9.3c1.5-3.4,2.6-7,3-10.7c0.5-3.8,0.4-7.6-0.2-11.4
		c-0.4-2.2-0.8-4.4-1.2-6.8c-0.4-2.3-1-4.5-1.5-6.8c-0.3-1.3-0.6-2.7-1-4.1L399.3,154.1z"/>
	<path class="st6" d="M303,192.7c0.3,2.3,0.6,4.5,0.7,6.8c0.2,2.6,0.3,5.2,0.3,7.7c0,0.9,0,1.9,0,3l0,1.1c8.6-2.6,17-5.9,25.1-9.8
		c17.8-8.5,34.1-20.1,48-34.1c7.5-7.4,14.3-15.5,20.4-24.1c2.4-3.4,4.4-7,5.8-10.9c2.8-7.6,3.2-15.9,1.4-23.8
		c-0.9-4-2.4-7.9-4.4-11.5c-1.3-2.4-2.6-4.6-4-6.9c-1.3-2.2-2.7-4.5-4.2-6.7c-0.9-1.4-1.8-2.8-2.8-4.2l-1.3-1.9
		c-3,11.5-7.1,22.7-12,33.5c-5.1,11.2-11.4,22-18.6,32c-7.3,10.1-15.6,19.4-24.8,27.7C323.5,178.9,313.6,186.3,303,192.7z"/>
	<path class="st7" d="M251.7,312.8l-1.5-1.2c-2.3-1.9-4.6-3.9-6.8-6c-1.1-0.9-2.1-1.9-3.1-2.9c-3,1.2-6,2.3-9.2,3.3
		c-2.7,0.8-5.4,1.5-8.1,2.1c1.2,1.2,2.5,2.4,3.9,3.3c4.5,3.1,9.9,4.5,15.4,4.1c3-0.2,5.9-1,8.6-2.3L251.7,312.8z"/>
	<path class="st8" d="M185.3,296.4c4.4,6.3,7.1,13.6,7.9,21.3c0.7,7.7,0.2,15.5-1.4,23l-3.5,17.9c-3.7,19.4-7.4,36.3-11.5,53
		c-3.9,16.3-8.1,32.3-12.9,50.1c6.2,0.9,12.4,1.6,18.7,2.1c6.7,0.5,13.5,0.8,20.2,0.8c6.8,0,13.5-0.3,20.2-0.8
		c6.3-0.5,12.5-1.2,18.7-2.1c-4.8-17.8-9-33.7-13-50.1c-4-16.7-7.7-33.6-11.5-53l-3.5-17.9c-1.6-7.6-2.1-15.3-1.4-23
		c0.8-7.7,3.5-15,7.9-21.3c7.8-10.9,14.4-22.5,19.9-34.8c4.3-9.2,7-19.1,8-29.2c0.6-11-1.6-22-6.5-31.8c-4.8-10.1-12-18.8-21.1-25.3
		l-11.3-7.9l12.5,5.7c4.5,2,8.8,4.5,12.7,7.5c2.8,2.2,5.3,4.7,7.5,7.4c0.4-5.6,1.4-11.1,3-16.5c1.4-4.7,2.3-9.6,2.6-14.5
		c0.4-5.9-1-11.9-4.2-16.9c-2.7-3.8-6.6-6.7-11-8.1c-1.8-0.6-3.6-1.1-5.5-1.5c-13-2.3-25.2,3.5-35.3,13.4
		c-17.1,16.9-36.1,63.4-34.5,88.4c1,10.1,3.8,20,8,29.2C170.9,273.9,177.5,285.5,185.3,296.4L185.3,296.4z M220.7,154.7
		c-1.4-1.9-1.1-4.5,0.6-6.2c0.4-0.4,0.9-0.7,1.5-0.6c0.6,0,1.1,0.3,1.4,0.8c2,3.1,4.8,5.7,8.1,7.5
		C228,155.4,222.8,157.8,220.7,154.7L220.7,154.7z"/>
	<path class="st9" d="M155.3,201.1c-8.5-5.6-16.4-12-23.8-19c-4.1-3.6-8.8-7.7-14.2-12.3c-1.1,2.5-2,5-2.9,7.6
		c-1,3.1-1.9,6.3-2.6,9.5c-0.7,3.3-1.3,6.7-1.6,10.1c-0.4,3.4-0.5,6.8-0.5,10.3c0,34.3,18.5,66,48.3,82.9c6.5,3.7,13.5,6.6,20.8,8.7
		l-0.6-1c-7.9-11-14.6-22.8-20.2-35.2c-4.4-9.5-7.2-19.7-8.2-30.1C149.1,221.8,151,211.1,155.3,201.1z"/>
	<path class="st10" d="M172.3,322.6c-6.5,10.9-12.2,20.9-17.4,30.1c-10.6,19.5-22.4,38.4-35.4,56.5c15,6.3,30.7,10.9,46.8,13.8
		c2.6-10.2,5-20.2,7.3-30.5c2.4-10.7,4.8-22,7.1-34.3l3.5-17.9c0.9-4.4,1.4-8.8,1.6-13.3c0.2-3.5,0-7-0.5-10.5c-1.3,1-2.6,1.9-4,2.8
		c-2.1,1.2-4.3,2.2-6.6,2.9c-0.5,0.1-1,0.3-1.4,0.4L172.3,322.6z"/>
	<path class="st11" d="M68,89.1c-8.1-29-9.8-59.4-5.2-89.1c-3.2,2.2-6.4,4.5-9.4,6.8c-2.2,1.7-4.4,3.4-6.7,5.2
		c-2.2,1.8-4.3,3.6-6.5,5.5c-3.6,3.1-6.8,6.7-9.5,10.7c-2.6,3.9-4.6,8.1-6.1,12.5c-1.4,4.4-2.2,9-2.4,13.7
		c-0.1,4.8,0.3,9.6,1.4,14.2c2.9,12.7,7.1,25.1,12.4,37.1c5.1,11.5,11.4,22.4,18.7,32.5c6.8,9.4,14.5,18,23,25.9
		c8.2,7.6,17.1,14.3,26.5,20.2c0.8-3.3,1.7-6.6,2.7-9.8c1.2-3.5,2.6-6.9,4.1-10.3l0.1-0.3C91,142.9,76.1,117.2,68,89.1z"/>
	<path class="st12" d="M150,294.6c-2.8-1.7-5.5-3.6-8.1-5.6c-3.1,1.7-6.2,3.3-9.3,4.8c-3.4,1.6-6.8,3.2-10.3,4.6
		c-3.1,1.3-6.3,2.5-9.4,3.6c-2.5,0.9-5,1.7-7.5,2.4l0,0c0.8,0.8,1.5,1.5,2.3,2.3s1.5,1.5,2.3,2.2c2.3,2.1,4.9,3.8,7.7,5.1
		c2.8,1.2,5.8,1.9,8.9,2.1c3.1,0.2,6.2-0.2,9.1-1.1c3-0.9,5.7-2.4,8.2-4.3c1.6-1.2,3.2-2.5,4.8-3.8c2.6-2.1,5.1-4.2,7.5-6.5l1.5-1.4
		C155.1,297.7,152.5,296.2,150,294.6z"/>
	<path class="st13" d="M72.4,275.1c-4.8-0.1-9.4-0.5-14.1-1l0.9,2c0.6,1.4,1.3,2.7,2,4s1.4,2.7,2.1,4c1.6,2.9,3.6,5.5,6,7.8
		c4.8,4.5,11,7.1,17.5,7.6c3.3,0.2,6.6-0.1,9.8-0.9c3.8-1,7.6-2.1,11.4-3.4c3.8-1.2,7.5-2.7,11.2-4.2c2.9-1.2,5.9-2.5,8.9-3.9
		c2.4-1.1,4.8-2.3,7.2-3.6l-1.1-1c-0.9-0.8-1.7-1.6-2.4-2.3c-1.7-1.7-3.4-3.5-5-5.4c-1.4-1.6-2.8-3.3-4.1-5.1
		c-5.6,1.4-11.1,2.5-16.6,3.3c-5.8,0.9-11.6,1.5-17.4,1.9C83.3,275.2,77.8,275.3,72.4,275.1z"/>
	<path class="st9" d="M40.8,231.6c-6.3-2.7-12.5-5.7-18.5-9.1c0.1,1.3,0.2,2.6,0.4,3.9c0.2,1.9,0.4,3.8,0.7,5.6s0.5,3.7,0.8,5.5
		c0.6,3.5,1.7,7,3.4,10.2c1.6,3.1,3.7,6,6.2,8.5c2.5,2.5,5.4,4.5,8.6,6c3.2,1.6,6.7,2.6,10.2,3.2c5.9,0.9,11.9,1.4,17.8,1.7
		c6,0.3,11.9,0.2,17.9-0.1c5.2-0.3,10.4-0.9,15.6-1.6c4.6-0.7,9.2-1.5,13.9-2.6c-1.6-2.5-3.1-5.1-4.5-7.7c-1.5-2.9-2.9-5.9-4.1-8.9
		c-7.9-0.2-15.7-0.8-23.5-2c-7.9-1.1-15.8-2.8-23.5-5C55,237.1,47.8,234.6,40.8,231.6z"/>
	<path class="st14" d="M24.8,174.8c-6.6-6.5-12.8-13.4-18.4-20.7L6,155.7c-0.4,1.4-0.7,2.8-1,4.1c-0.5,2.2-1,4.5-1.4,6.8
		c-0.4,2.3-0.9,4.6-1.2,6.8c-0.6,3.8-0.7,7.6-0.2,11.4c0.5,3.7,1.5,7.3,3,10.7c1.6,3.4,3.6,6.5,6.1,9.3c2.6,2.8,5.5,5.3,8.8,7.3
		c7,4.3,14.2,8.1,21.7,11.4c14.1,6.2,29,10.5,44.3,12.9c6.8,1,13.6,1.7,20.4,1.9c-0.9-2.8-1.6-5.7-2.3-8.6c-0.7-3.2-1.2-6.4-1.7-9.7
		c-9.7-2.8-19.1-6.4-28.3-10.7C56,200.5,39.3,188.9,24.8,174.8L24.8,174.8z"/>
	<path class="st15" d="M101.9,199.5c0.2-2.3,0.4-4.6,0.7-6.8c-10.5-6.4-20.4-13.8-29.6-22c-9.2-8.4-17.5-17.7-24.7-27.7
		c-7.2-10-13.5-20.7-18.6-32c-4.9-10.8-8.9-22-12-33.5l-1.3,1.9c-1,1.4-1.9,2.8-2.8,4.2c-1.4,2.2-2.8,4.5-4.2,6.7
		c-1.3,2.3-2.6,4.5-3.9,6.9c-2,3.6-3.5,7.5-4.5,11.5c-0.9,3.9-1.3,8-1,12c0.2,4,1.1,8,2.4,11.8c1.4,3.9,3.4,7.6,5.8,10.9
		c6.1,8.6,12.9,16.7,20.3,24.1c20.4,20.4,45.5,35.5,73.1,43.9v-1.1c0-1.1-0.1-2.1-0.1-3C101.7,204.7,101.8,202.1,101.9,199.5z"/>
	<path class="st16" d="M155.5,311.5l-1.5,1.2l0.8,0.4c2.7,1.3,5.6,2.1,8.6,2.3c3,0.2,6-0.1,8.9-1c2.3-0.7,4.5-1.8,6.5-3.1
		c1.4-1,2.8-2.1,3.9-3.3c-2.7-0.6-5.4-1.3-8.1-2.1c-3.1-1-6.2-2-9.2-3.3c-1.1,1-2.1,2-3.1,2.9C160.1,307.6,157.8,309.6,155.5,311.5z
		"/>
	<path class="st4" d="M250.4,201.1c8.5-5.6,16.4-12,23.8-19c4.1-3.6,8.8-7.7,14.2-12.3c1.1,2.5,2,5,2.9,7.6c1,3.1,1.9,6.3,2.6,9.5
		c0.7,3.3,1.3,6.7,1.6,10.1c5,46.1-24,89.1-68.6,101.9l0.7-1c7.9-11,14.6-22.9,20.1-35.2c4.4-9.5,7.2-19.7,8.3-30.1
		C256.6,221.8,254.7,211,250.4,201.1z"/>
</g>
<g id="blanc" class="st17">
	<path class="st18" d="M250.8,352.7c-5.3-9.2-10.9-19.2-17.4-30.1l-0.9-0.2l-1.4-0.4c-2.3-0.7-4.5-1.7-6.6-2.9
		c-1.4-0.8-2.8-1.8-4.1-2.8c-0.5,3.5-0.6,7-0.5,10.5c0.2,4.5,0.8,8.9,1.7,13.3l3.5,17.9c2.4,12.3,4.7,23.6,7.1,34.3
		c2.3,10.3,4.7,20.3,7.2,30.5c16.1-2.8,31.8-7.4,46.8-13.8C273.2,391.2,261.4,372.3,250.8,352.7z"/>
	<path class="st18" d="M342.9,0c4.6,29.7,2.9,60.1-5.2,89.1c-8.1,28.1-23,53.8-43.2,74.9l0.1,0.3c1.5,3.4,2.9,6.8,4.1,10.3
		c1.1,3.2,2,6.5,2.7,9.8c9.4-5.9,18.3-12.7,26.5-20.2c8.5-7.8,16.2-16.5,23-25.9c7.3-10.2,13.6-21.1,18.7-32.5
		c5.3-11.9,9.4-24.3,12.4-37.1c1.1-4.7,1.6-9.4,1.4-14.2c-0.1-4.6-0.9-9.2-2.4-13.7c-1.4-4.4-3.5-8.6-6.1-12.5
		c-2.7-4-5.9-7.6-9.5-10.7c-2.2-1.9-4.3-3.7-6.5-5.5s-4.4-3.6-6.6-5.2c-1.8-1.4-3.8-2.8-5.9-4.3l0-0.1C345.2,1.6,344.1,0.8,342.9,0z
		"/>
	<path class="st18" d="M263.8,289c-2.6,2-5.3,3.9-8.1,5.6c-2.5,1.6-5.1,3-7.7,4.4l1.5,1.4c2.4,2.2,4.9,4.4,7.5,6.5
		c1.6,1.3,3.1,2.5,4.8,3.8c4.9,3.8,11,5.7,17.2,5.4c3.1-0.1,6.1-0.9,8.9-2.1c2.8-1.2,5.5-3,7.7-5.1c0.8-0.7,1.5-1.5,2.3-2.2
		c0.8-0.7,1.5-1.5,2.3-2.3l0,0c-2.5-0.7-5-1.5-7.5-2.4c-3.1-1.1-6.3-2.3-9.4-3.6c-3.4-1.4-6.9-2.9-10.3-4.6
		C270,292.3,266.9,290.7,263.8,289z"/>
	<path class="st18" d="M347.4,274.1c-4.6,0.5-9.3,0.8-14.1,1c-5.4,0.2-10.9,0.1-16.4-0.2c-5.7-0.3-11.5-1-17.4-1.9
		c-5.5-0.8-11-1.9-16.5-3.3c-1.3,1.7-2.7,3.4-4.1,5.1c-1.6,1.9-3.3,3.7-5,5.4c-0.7,0.7-1.5,1.5-2.4,2.3l-1.1,1
		c2.4,1.3,4.8,2.5,7.2,3.6c3,1.4,5.9,2.7,8.9,3.9c3.7,1.5,7.5,2.9,11.2,4.2s7.6,2.4,11.4,3.4c3.2,0.8,6.5,1.1,9.8,0.9
		c6.5-0.5,12.7-3.1,17.5-7.6c2.4-2.2,4.5-4.9,6-7.8c0.7-1.3,1.4-2.6,2.1-4c0.7-1.4,1.3-2.7,2-4L347.4,274.1z"/>
	<path class="st18" d="M383.4,222.5c-6,3.4-12.1,6.4-18.5,9.1c-7,3-14.2,5.5-21.5,7.6c-7.7,2.2-15.5,3.8-23.5,5
		c-7.8,1.1-15.6,1.8-23.5,2c-1.2,3-2.6,6-4.1,8.9c-1.4,2.6-2.9,5.2-4.5,7.7c4.7,1.1,9.3,1.9,13.9,2.6c5.2,0.8,10.5,1.3,15.6,1.6
		c6,0.4,12,0.4,17.9,0.1c6-0.3,11.9-0.8,17.8-1.7c3.5-0.5,7-1.6,10.2-3.2c3.2-1.5,6.1-3.6,8.6-6c2.5-2.5,4.6-5.3,6.2-8.5
		c1.6-3.2,2.8-6.6,3.4-10.2c0.3-1.9,0.6-3.8,0.8-5.5s0.5-3.7,0.7-5.6C383.1,225.1,383.3,223.9,383.4,222.5z"/>
	<path class="st18" d="M399.3,154.1c-5.6,7.3-11.8,14.3-18.4,20.7c-14.4,14.1-31.1,25.7-49.3,34.3c-9.1,4.3-18.6,7.9-28.3,10.7
		c-0.4,3.3-1,6.5-1.6,9.7c-0.6,2.9-1.4,5.7-2.3,8.6c6.9-0.2,13.7-0.9,20.5-1.9c15.3-2.3,30.2-6.6,44.3-12.9
		c7.5-3.3,14.7-7.1,21.7-11.4c3.2-2,6.2-4.5,8.8-7.3c2.5-2.8,4.5-5.9,6.1-9.3c1.5-3.4,2.6-7,3-10.7c0.5-3.8,0.4-7.6-0.2-11.4
		c-0.4-2.2-0.8-4.4-1.2-6.8c-0.4-2.3-1-4.5-1.5-6.8c-0.3-1.3-0.6-2.7-1-4.1L399.3,154.1z"/>
	<path class="st18" d="M303,192.7c0.3,2.3,0.6,4.5,0.7,6.8c0.2,2.6,0.3,5.2,0.3,7.7c0,0.9,0,1.9,0,3l0,1.1c8.6-2.6,17-5.9,25.1-9.8
		c17.8-8.5,34.1-20.1,48-34.1c7.5-7.4,14.3-15.5,20.4-24.1c2.4-3.4,4.4-7,5.8-10.9c2.8-7.6,3.2-15.9,1.4-23.8
		c-0.9-4-2.4-7.9-4.4-11.5c-1.3-2.4-2.6-4.6-4-6.9c-1.3-2.2-2.7-4.5-4.2-6.7c-0.9-1.4-1.8-2.8-2.8-4.2l-1.3-1.9
		c-3,11.5-7.1,22.7-12,33.5c-5.1,11.2-11.4,22-18.6,32c-7.3,10.1-15.6,19.4-24.8,27.7C323.5,178.9,313.6,186.3,303,192.7z"/>
	<path class="st18" d="M251.7,312.8l-1.5-1.2c-2.3-1.9-4.6-3.9-6.8-6c-1.1-0.9-2.1-1.9-3.1-2.9c-3,1.2-6,2.3-9.2,3.3
		c-2.7,0.8-5.4,1.5-8.1,2.1c1.2,1.2,2.5,2.4,3.9,3.3c4.5,3.1,9.9,4.5,15.4,4.1c3-0.2,5.9-1,8.6-2.3L251.7,312.8z"/>
	<path class="st18" d="M185.3,296.4c4.4,6.3,7.1,13.6,7.9,21.3c0.7,7.7,0.2,15.5-1.4,23l-3.5,17.9c-3.7,19.4-7.4,36.3-11.5,53
		c-3.9,16.3-8.1,32.3-12.9,50.1c6.2,0.9,12.4,1.6,18.7,2.1c6.7,0.5,13.5,0.8,20.2,0.8c6.8,0,13.5-0.3,20.2-0.8
		c6.3-0.5,12.5-1.2,18.7-2.1c-4.8-17.8-9-33.7-13-50.1c-4-16.7-7.7-33.6-11.5-53l-3.5-17.9c-1.6-7.6-2.1-15.3-1.4-23
		c0.8-7.7,3.5-15,7.9-21.3c7.8-10.9,14.4-22.5,19.9-34.8c4.3-9.2,7-19.1,8-29.2c0.6-11-1.6-22-6.5-31.8c-4.8-10.1-12-18.8-21.1-25.3
		l-11.3-7.9l12.5,5.7c4.5,2,8.8,4.5,12.7,7.5c2.8,2.2,5.3,4.7,7.5,7.4c0.4-5.6,1.4-11.1,3-16.5c1.4-4.7,2.3-9.6,2.6-14.5
		c0.4-5.9-1-11.9-4.2-16.9c-2.7-3.8-6.6-6.7-11-8.1c-1.8-0.6-3.6-1.1-5.5-1.5c-13-2.3-25.2,3.5-35.3,13.4
		c-17.1,16.9-36.1,63.4-34.5,88.4c1,10.1,3.8,20,8,29.2C170.9,273.9,177.5,285.5,185.3,296.4L185.3,296.4z M220.7,154.7
		c-1.4-1.9-1.1-4.5,0.6-6.2c0.4-0.4,0.9-0.7,1.5-0.6c0.6,0,1.1,0.3,1.4,0.8c2,3.1,4.8,5.7,8.1,7.5
		C228,155.4,222.8,157.8,220.7,154.7L220.7,154.7z"/>
	<path class="st18" d="M155.3,201.1c-8.5-5.6-16.4-12-23.8-19c-4.1-3.6-8.8-7.7-14.2-12.3c-1.1,2.5-2,5-2.9,7.6
		c-1,3.1-1.9,6.3-2.6,9.5c-0.7,3.3-1.3,6.7-1.6,10.1c-0.4,3.4-0.5,6.8-0.5,10.3c0,34.3,18.5,66,48.3,82.9c6.5,3.7,13.5,6.6,20.8,8.7
		l-0.6-1c-7.9-11-14.6-22.8-20.2-35.2c-4.4-9.5-7.2-19.7-8.2-30.1C149.1,221.8,151,211.1,155.3,201.1z"/>
	<path class="st18" d="M172.3,322.6c-6.5,10.9-12.2,20.9-17.4,30.1c-10.6,19.5-22.4,38.4-35.4,56.5c15,6.3,30.7,10.9,46.8,13.8
		c2.6-10.2,5-20.2,7.3-30.5c2.4-10.7,4.8-22,7.1-34.3l3.5-17.9c0.9-4.4,1.4-8.8,1.6-13.3c0.2-3.5,0-7-0.5-10.5c-1.3,1-2.6,1.9-4,2.8
		c-2.1,1.2-4.3,2.2-6.6,2.9c-0.5,0.1-1,0.3-1.4,0.4L172.3,322.6z"/>
	<path class="st18" d="M68,89.1c-8.1-29-9.8-59.4-5.2-89.1c-3.2,2.2-6.4,4.5-9.4,6.8c-2.2,1.7-4.4,3.4-6.7,5.2
		c-2.2,1.8-4.3,3.6-6.5,5.5c-3.6,3.1-6.8,6.7-9.5,10.7c-2.6,3.9-4.6,8.1-6.1,12.5c-1.4,4.4-2.2,9-2.4,13.7
		c-0.1,4.8,0.3,9.6,1.4,14.2c2.9,12.7,7.1,25.1,12.4,37.1c5.1,11.5,11.4,22.4,18.7,32.5c6.8,9.4,14.5,18,23,25.9
		c8.2,7.6,17.1,14.3,26.5,20.2c0.8-3.3,1.7-6.6,2.7-9.8c1.2-3.5,2.6-6.9,4.1-10.3l0.1-0.3C91,142.9,76.1,117.2,68,89.1z"/>
	<path class="st18" d="M150,294.6c-2.8-1.7-5.5-3.6-8.1-5.6c-3.1,1.7-6.2,3.3-9.3,4.8c-3.4,1.6-6.8,3.2-10.3,4.6
		c-3.1,1.3-6.3,2.5-9.4,3.6c-2.5,0.9-5,1.7-7.5,2.4l0,0c0.8,0.8,1.5,1.5,2.3,2.3s1.5,1.5,2.3,2.2c2.3,2.1,4.9,3.8,7.7,5.1
		c2.8,1.2,5.8,1.9,8.9,2.1c3.1,0.2,6.2-0.2,9.1-1.1c3-0.9,5.7-2.4,8.2-4.3c1.6-1.2,3.2-2.5,4.8-3.8c2.6-2.1,5.1-4.2,7.5-6.5l1.5-1.4
		C155.1,297.7,152.5,296.2,150,294.6z"/>
	<path class="st18" d="M72.4,275.1c-4.8-0.1-9.4-0.5-14.1-1l0.9,2c0.6,1.4,1.3,2.7,2,4s1.4,2.7,2.1,4c1.6,2.9,3.6,5.5,6,7.8
		c4.8,4.5,11,7.1,17.5,7.6c3.3,0.2,6.6-0.1,9.8-0.9c3.8-1,7.6-2.1,11.4-3.4c3.8-1.2,7.5-2.7,11.2-4.2c2.9-1.2,5.9-2.5,8.9-3.9
		c2.4-1.1,4.8-2.3,7.2-3.6l-1.1-1c-0.9-0.8-1.7-1.6-2.4-2.3c-1.7-1.7-3.4-3.5-5-5.4c-1.4-1.6-2.8-3.3-4.1-5.1
		c-5.6,1.4-11.1,2.5-16.6,3.3c-5.8,0.9-11.6,1.5-17.4,1.9C83.3,275.2,77.8,275.3,72.4,275.1z"/>
	<path class="st18" d="M40.8,231.6c-6.3-2.7-12.5-5.7-18.5-9.1c0.1,1.3,0.2,2.6,0.4,3.9c0.2,1.9,0.4,3.8,0.7,5.6s0.5,3.7,0.8,5.5
		c0.6,3.5,1.7,7,3.4,10.2c1.6,3.1,3.7,6,6.2,8.5c2.5,2.5,5.4,4.5,8.6,6c3.2,1.6,6.7,2.6,10.2,3.2c5.9,0.9,11.9,1.4,17.8,1.7
		c6,0.3,11.9,0.2,17.9-0.1c5.2-0.3,10.4-0.9,15.6-1.6c4.6-0.7,9.2-1.5,13.9-2.6c-1.6-2.5-3.1-5.1-4.5-7.7c-1.5-2.9-2.9-5.9-4.1-8.9
		c-7.9-0.2-15.7-0.8-23.5-2c-7.9-1.1-15.8-2.8-23.5-5C55,237.1,47.8,234.6,40.8,231.6z"/>
	<path class="st18" d="M24.8,174.8c-6.6-6.5-12.8-13.4-18.4-20.7L6,155.7c-0.4,1.4-0.7,2.8-1,4.1c-0.5,2.2-1,4.5-1.4,6.8
		c-0.4,2.3-0.9,4.6-1.2,6.8c-0.6,3.8-0.7,7.6-0.2,11.4c0.5,3.7,1.5,7.3,3,10.7c1.6,3.4,3.6,6.5,6.1,9.3c2.6,2.8,5.5,5.3,8.8,7.3
		c7,4.3,14.2,8.1,21.7,11.4c14.1,6.2,29,10.5,44.3,12.9c6.8,1,13.6,1.7,20.4,1.9c-0.9-2.8-1.6-5.7-2.3-8.6c-0.7-3.2-1.2-6.4-1.7-9.7
		c-9.7-2.8-19.1-6.4-28.3-10.7C56,200.5,39.3,188.9,24.8,174.8L24.8,174.8z"/>
	<path class="st18" d="M101.9,199.5c0.2-2.3,0.4-4.6,0.7-6.8c-10.5-6.4-20.4-13.8-29.6-22c-9.2-8.4-17.5-17.7-24.7-27.7
		c-7.2-10-13.5-20.7-18.6-32c-4.9-10.8-8.9-22-12-33.5l-1.3,1.9c-1,1.4-1.9,2.8-2.8,4.2c-1.4,2.2-2.8,4.5-4.2,6.7
		c-1.3,2.3-2.6,4.5-3.9,6.9c-2,3.6-3.5,7.5-4.5,11.5c-0.9,3.9-1.3,8-1,12c0.2,4,1.1,8,2.4,11.8c1.4,3.9,3.4,7.6,5.8,10.9
		c6.1,8.6,12.9,16.7,20.3,24.1c20.4,20.4,45.5,35.5,73.1,43.9v-1.1c0-1.1-0.1-2.1-0.1-3C101.7,204.7,101.8,202.1,101.9,199.5z"/>
	<path class="st18" d="M155.5,311.5l-1.5,1.2l0.8,0.4c2.7,1.3,5.6,2.1,8.6,2.3c3,0.2,6-0.1,8.9-1c2.3-0.7,4.5-1.8,6.5-3.1
		c1.4-1,2.8-2.1,3.9-3.3c-2.7-0.6-5.4-1.3-8.1-2.1c-3.1-1-6.2-2-9.2-3.3c-1.1,1-2.1,2-3.1,2.9C160.1,307.6,157.8,309.6,155.5,311.5z
		"/>
	<path class="st18" d="M250.4,201.1c8.5-5.6,16.4-12,23.8-19c4.1-3.6,8.8-7.7,14.2-12.3c1.1,2.5,2,5,2.9,7.6c1,3.1,1.9,6.3,2.6,9.5
		c0.7,3.3,1.3,6.7,1.6,10.1c5,46.1-24,89.1-68.6,101.9l0.7-1c7.9-11,14.6-22.9,20.1-35.2c4.4-9.5,7.2-19.7,8.3-30.1
		C256.6,221.8,254.7,211,250.4,201.1z"/>
</g>
<g id="noir" class="st17">
	<path class="st19" d="M250.8,352.7c-5.3-9.2-10.9-19.2-17.4-30.1l-0.9-0.2l-1.4-0.4c-2.3-0.7-4.5-1.7-6.6-2.9
		c-1.4-0.8-2.8-1.8-4.1-2.8c-0.5,3.5-0.6,7-0.5,10.5c0.2,4.5,0.8,8.9,1.7,13.3l3.5,17.9c2.4,12.3,4.7,23.6,7.1,34.3
		c2.3,10.3,4.7,20.3,7.2,30.5c16.1-2.8,31.8-7.4,46.8-13.8C273.2,391.2,261.4,372.3,250.8,352.7z"/>
	<path class="st19" d="M342.9,0c4.6,29.7,2.9,60.1-5.2,89.1c-8.1,28.1-23,53.8-43.2,74.9l0.1,0.3c1.5,3.4,2.9,6.8,4.1,10.3
		c1.1,3.2,2,6.5,2.7,9.8c9.4-5.9,18.3-12.7,26.5-20.2c8.5-7.8,16.2-16.5,23-25.9c7.3-10.2,13.6-21.1,18.7-32.5
		c5.3-11.9,9.4-24.3,12.4-37.1c1.1-4.7,1.6-9.4,1.4-14.2c-0.1-4.6-0.9-9.2-2.4-13.7c-1.4-4.4-3.5-8.6-6.1-12.5
		c-2.7-4-5.9-7.6-9.5-10.7c-2.2-1.9-4.3-3.7-6.5-5.5s-4.4-3.6-6.6-5.2c-1.8-1.4-3.8-2.8-5.9-4.3l0-0.1C345.2,1.6,344.1,0.8,342.9,0z
		"/>
	<path class="st19" d="M263.8,289c-2.6,2-5.3,3.9-8.1,5.6c-2.5,1.6-5.1,3-7.7,4.4l1.5,1.4c2.4,2.2,4.9,4.4,7.5,6.5
		c1.6,1.3,3.1,2.5,4.8,3.8c4.9,3.8,11,5.7,17.2,5.4c3.1-0.1,6.1-0.9,8.9-2.1c2.8-1.2,5.5-3,7.7-5.1c0.8-0.7,1.5-1.5,2.3-2.2
		c0.8-0.7,1.5-1.5,2.3-2.3l0,0c-2.5-0.7-5-1.5-7.5-2.4c-3.1-1.1-6.3-2.3-9.4-3.6c-3.4-1.4-6.9-2.9-10.3-4.6
		C270,292.3,266.9,290.7,263.8,289z"/>
	<path class="st19" d="M347.4,274.1c-4.6,0.5-9.3,0.8-14.1,1c-5.4,0.2-10.9,0.1-16.4-0.2c-5.7-0.3-11.5-1-17.4-1.9
		c-5.5-0.8-11-1.9-16.5-3.3c-1.3,1.7-2.7,3.4-4.1,5.1c-1.6,1.9-3.3,3.7-5,5.4c-0.7,0.7-1.5,1.5-2.4,2.3l-1.1,1
		c2.4,1.3,4.8,2.5,7.2,3.6c3,1.4,5.9,2.7,8.9,3.9c3.7,1.5,7.5,2.9,11.2,4.2s7.6,2.4,11.4,3.4c3.2,0.8,6.5,1.1,9.8,0.9
		c6.5-0.5,12.7-3.1,17.5-7.6c2.4-2.2,4.5-4.9,6-7.8c0.7-1.3,1.4-2.6,2.1-4c0.7-1.4,1.3-2.7,2-4L347.4,274.1z"/>
	<path class="st19" d="M383.4,222.5c-6,3.4-12.1,6.4-18.5,9.1c-7,3-14.2,5.5-21.5,7.6c-7.7,2.2-15.5,3.8-23.5,5
		c-7.8,1.1-15.6,1.8-23.5,2c-1.2,3-2.6,6-4.1,8.9c-1.4,2.6-2.9,5.2-4.5,7.7c4.7,1.1,9.3,1.9,13.9,2.6c5.2,0.8,10.5,1.3,15.6,1.6
		c6,0.4,12,0.4,17.9,0.1c6-0.3,11.9-0.8,17.8-1.7c3.5-0.5,7-1.6,10.2-3.2c3.2-1.5,6.1-3.6,8.6-6c2.5-2.5,4.6-5.3,6.2-8.5
		c1.6-3.2,2.8-6.6,3.4-10.2c0.3-1.9,0.6-3.8,0.8-5.5s0.5-3.7,0.7-5.6C383.1,225.1,383.3,223.9,383.4,222.5z"/>
	<path class="st19" d="M399.3,154.1c-5.6,7.3-11.8,14.3-18.4,20.7c-14.4,14.1-31.1,25.7-49.3,34.3c-9.1,4.3-18.6,7.9-28.3,10.7
		c-0.4,3.3-1,6.5-1.6,9.7c-0.6,2.9-1.4,5.7-2.3,8.6c6.9-0.2,13.7-0.9,20.5-1.9c15.3-2.3,30.2-6.6,44.3-12.9
		c7.5-3.3,14.7-7.1,21.7-11.4c3.2-2,6.2-4.5,8.8-7.3c2.5-2.8,4.5-5.9,6.1-9.3c1.5-3.4,2.6-7,3-10.7c0.5-3.8,0.4-7.6-0.2-11.4
		c-0.4-2.2-0.8-4.4-1.2-6.8c-0.4-2.3-1-4.5-1.5-6.8c-0.3-1.3-0.6-2.7-1-4.1L399.3,154.1z"/>
	<path class="st19" d="M303,192.7c0.3,2.3,0.6,4.5,0.7,6.8c0.2,2.6,0.3,5.2,0.3,7.7c0,0.9,0,1.9,0,3l0,1.1c8.6-2.6,17-5.9,25.1-9.8
		c17.8-8.5,34.1-20.1,48-34.1c7.5-7.4,14.3-15.5,20.4-24.1c2.4-3.4,4.4-7,5.8-10.9c2.8-7.6,3.2-15.9,1.4-23.8
		c-0.9-4-2.4-7.9-4.4-11.5c-1.3-2.4-2.6-4.6-4-6.9c-1.3-2.2-2.7-4.5-4.2-6.7c-0.9-1.4-1.8-2.8-2.8-4.2l-1.3-1.9
		c-3,11.5-7.1,22.7-12,33.5c-5.1,11.2-11.4,22-18.6,32c-7.3,10.1-15.6,19.4-24.8,27.7C323.5,178.9,313.6,186.3,303,192.7z"/>
	<path class="st19" d="M251.7,312.8l-1.5-1.2c-2.3-1.9-4.6-3.9-6.8-6c-1.1-0.9-2.1-1.9-3.1-2.9c-3,1.2-6,2.3-9.2,3.3
		c-2.7,0.8-5.4,1.5-8.1,2.1c1.2,1.2,2.5,2.4,3.9,3.3c4.5,3.1,9.9,4.5,15.4,4.1c3-0.2,5.9-1,8.6-2.3L251.7,312.8z"/>
	<path class="st19" d="M185.3,296.4c4.4,6.3,7.1,13.6,7.9,21.3c0.7,7.7,0.2,15.5-1.4,23l-3.5,17.9c-3.7,19.4-7.4,36.3-11.5,53
		c-3.9,16.3-8.1,32.3-12.9,50.1c6.2,0.9,12.4,1.6,18.7,2.1c6.7,0.5,13.5,0.8,20.2,0.8c6.8,0,13.5-0.3,20.2-0.8
		c6.3-0.5,12.5-1.2,18.7-2.1c-4.8-17.8-9-33.7-13-50.1c-4-16.7-7.7-33.6-11.5-53l-3.5-17.9c-1.6-7.6-2.1-15.3-1.4-23
		c0.8-7.7,3.5-15,7.9-21.3c7.8-10.9,14.4-22.5,19.9-34.8c4.3-9.2,7-19.1,8-29.2c0.6-11-1.6-22-6.5-31.8c-4.8-10.1-12-18.8-21.1-25.3
		l-11.3-7.9l12.5,5.7c4.5,2,8.8,4.5,12.7,7.5c2.8,2.2,5.3,4.7,7.5,7.4c0.4-5.6,1.4-11.1,3-16.5c1.4-4.7,2.3-9.6,2.6-14.5
		c0.4-5.9-1-11.9-4.2-16.9c-2.7-3.8-6.6-6.7-11-8.1c-1.8-0.6-3.6-1.1-5.5-1.5c-13-2.3-25.2,3.5-35.3,13.4
		c-17.1,16.9-36.1,63.4-34.5,88.4c1,10.1,3.8,20,8,29.2C170.9,273.9,177.5,285.5,185.3,296.4L185.3,296.4z M220.7,154.7
		c-1.4-1.9-1.1-4.5,0.6-6.2c0.4-0.4,0.9-0.7,1.5-0.6c0.6,0,1.1,0.3,1.4,0.8c2,3.1,4.8,5.7,8.1,7.5
		C228,155.4,222.8,157.8,220.7,154.7L220.7,154.7z"/>
	<path class="st19" d="M155.3,201.1c-8.5-5.6-16.4-12-23.8-19c-4.1-3.6-8.8-7.7-14.2-12.3c-1.1,2.5-2,5-2.9,7.6
		c-1,3.1-1.9,6.3-2.6,9.5c-0.7,3.3-1.3,6.7-1.6,10.1c-0.4,3.4-0.5,6.8-0.5,10.3c0,34.3,18.5,66,48.3,82.9c6.5,3.7,13.5,6.6,20.8,8.7
		l-0.6-1c-7.9-11-14.6-22.8-20.2-35.2c-4.4-9.5-7.2-19.7-8.2-30.1C149.1,221.8,151,211.1,155.3,201.1z"/>
	<path class="st19" d="M172.3,322.6c-6.5,10.9-12.2,20.9-17.4,30.1c-10.6,19.5-22.4,38.4-35.4,56.5c15,6.3,30.7,10.9,46.8,13.8
		c2.6-10.2,5-20.2,7.3-30.5c2.4-10.7,4.8-22,7.1-34.3l3.5-17.9c0.9-4.4,1.4-8.8,1.6-13.3c0.2-3.5,0-7-0.5-10.5c-1.3,1-2.6,1.9-4,2.8
		c-2.1,1.2-4.3,2.2-6.6,2.9c-0.5,0.1-1,0.3-1.4,0.4L172.3,322.6z"/>
	<path class="st19" d="M68,89.1c-8.1-29-9.8-59.4-5.2-89.1c-3.2,2.2-6.4,4.5-9.4,6.8c-2.2,1.7-4.4,3.4-6.7,5.2
		c-2.2,1.8-4.3,3.6-6.5,5.5c-3.6,3.1-6.8,6.7-9.5,10.7c-2.6,3.9-4.6,8.1-6.1,12.5c-1.4,4.4-2.2,9-2.4,13.7
		c-0.1,4.8,0.3,9.6,1.4,14.2c2.9,12.7,7.1,25.1,12.4,37.1c5.1,11.5,11.4,22.4,18.7,32.5c6.8,9.4,14.5,18,23,25.9
		c8.2,7.6,17.1,14.3,26.5,20.2c0.8-3.3,1.7-6.6,2.7-9.8c1.2-3.5,2.6-6.9,4.1-10.3l0.1-0.3C91,142.9,76.1,117.2,68,89.1z"/>
	<path class="st19" d="M150,294.6c-2.8-1.7-5.5-3.6-8.1-5.6c-3.1,1.7-6.2,3.3-9.3,4.8c-3.4,1.6-6.8,3.2-10.3,4.6
		c-3.1,1.3-6.3,2.5-9.4,3.6c-2.5,0.9-5,1.7-7.5,2.4l0,0c0.8,0.8,1.5,1.5,2.3,2.3s1.5,1.5,2.3,2.2c2.3,2.1,4.9,3.8,7.7,5.1
		c2.8,1.2,5.8,1.9,8.9,2.1c3.1,0.2,6.2-0.2,9.1-1.1c3-0.9,5.7-2.4,8.2-4.3c1.6-1.2,3.2-2.5,4.8-3.8c2.6-2.1,5.1-4.2,7.5-6.5l1.5-1.4
		C155.1,297.7,152.5,296.2,150,294.6z"/>
	<path class="st19" d="M72.4,275.1c-4.8-0.1-9.4-0.5-14.1-1l0.9,2c0.6,1.4,1.3,2.7,2,4s1.4,2.7,2.1,4c1.6,2.9,3.6,5.5,6,7.8
		c4.8,4.5,11,7.1,17.5,7.6c3.3,0.2,6.6-0.1,9.8-0.9c3.8-1,7.6-2.1,11.4-3.4c3.8-1.2,7.5-2.7,11.2-4.2c2.9-1.2,5.9-2.5,8.9-3.9
		c2.4-1.1,4.8-2.3,7.2-3.6l-1.1-1c-0.9-0.8-1.7-1.6-2.4-2.3c-1.7-1.7-3.4-3.5-5-5.4c-1.4-1.6-2.8-3.3-4.1-5.1
		c-5.6,1.4-11.1,2.5-16.6,3.3c-5.8,0.9-11.6,1.5-17.4,1.9C83.3,275.2,77.8,275.3,72.4,275.1z"/>
	<path class="st19" d="M40.8,231.6c-6.3-2.7-12.5-5.7-18.5-9.1c0.1,1.3,0.2,2.6,0.4,3.9c0.2,1.9,0.4,3.8,0.7,5.6s0.5,3.7,0.8,5.5
		c0.6,3.5,1.7,7,3.4,10.2c1.6,3.1,3.7,6,6.2,8.5c2.5,2.5,5.4,4.5,8.6,6c3.2,1.6,6.7,2.6,10.2,3.2c5.9,0.9,11.9,1.4,17.8,1.7
		c6,0.3,11.9,0.2,17.9-0.1c5.2-0.3,10.4-0.9,15.6-1.6c4.6-0.7,9.2-1.5,13.9-2.6c-1.6-2.5-3.1-5.1-4.5-7.7c-1.5-2.9-2.9-5.9-4.1-8.9
		c-7.9-0.2-15.7-0.8-23.5-2c-7.9-1.1-15.8-2.8-23.5-5C55,237.1,47.8,234.6,40.8,231.6z"/>
	<path class="st19" d="M24.8,174.8c-6.6-6.5-12.8-13.4-18.4-20.7L6,155.7c-0.4,1.4-0.7,2.8-1,4.1c-0.5,2.2-1,4.5-1.4,6.8
		c-0.4,2.3-0.9,4.6-1.2,6.8c-0.6,3.8-0.7,7.6-0.2,11.4c0.5,3.7,1.5,7.3,3,10.7c1.6,3.4,3.6,6.5,6.1,9.3c2.6,2.8,5.5,5.3,8.8,7.3
		c7,4.3,14.2,8.1,21.7,11.4c14.1,6.2,29,10.5,44.3,12.9c6.8,1,13.6,1.7,20.4,1.9c-0.9-2.8-1.6-5.7-2.3-8.6c-0.7-3.2-1.2-6.4-1.7-9.7
		c-9.7-2.8-19.1-6.4-28.3-10.7C56,200.5,39.3,188.9,24.8,174.8L24.8,174.8z"/>
	<path class="st19" d="M101.9,199.5c0.2-2.3,0.4-4.6,0.7-6.8c-10.5-6.4-20.4-13.8-29.6-22c-9.2-8.4-17.5-17.7-24.7-27.7
		c-7.2-10-13.5-20.7-18.6-32c-4.9-10.8-8.9-22-12-33.5l-1.3,1.9c-1,1.4-1.9,2.8-2.8,4.2c-1.4,2.2-2.8,4.5-4.2,6.7
		c-1.3,2.3-2.6,4.5-3.9,6.9c-2,3.6-3.5,7.5-4.5,11.5c-0.9,3.9-1.3,8-1,12c0.2,4,1.1,8,2.4,11.8c1.4,3.9,3.4,7.6,5.8,10.9
		c6.1,8.6,12.9,16.7,20.3,24.1c20.4,20.4,45.5,35.5,73.1,43.9v-1.1c0-1.1-0.1-2.1-0.1-3C101.7,204.7,101.8,202.1,101.9,199.5z"/>
	<path class="st19" d="M155.5,311.5l-1.5,1.2l0.8,0.4c2.7,1.3,5.6,2.1,8.6,2.3c3,0.2,6-0.1,8.9-1c2.3-0.7,4.5-1.8,6.5-3.1
		c1.4-1,2.8-2.1,3.9-3.3c-2.7-0.6-5.4-1.3-8.1-2.1c-3.1-1-6.2-2-9.2-3.3c-1.1,1-2.1,2-3.1,2.9C160.1,307.6,157.8,309.6,155.5,311.5z
		"/>
	<path class="st19" d="M250.4,201.1c8.5-5.6,16.4-12,23.8-19c4.1-3.6,8.8-7.7,14.2-12.3c1.1,2.5,2,5,2.9,7.6c1,3.1,1.9,6.3,2.6,9.5
		c0.7,3.3,1.3,6.7,1.6,10.1c5,46.1-24,89.1-68.6,101.9l0.7-1c7.9-11,14.6-22.9,20.1-35.2c4.4-9.5,7.2-19.7,8.3-30.1
		C256.6,221.8,254.7,211,250.4,201.1z"/>
</g>
</svg>
